<svg width="512" height="512" viewBox="0 0 512 512" fill="none" xmlns="http://www.w3.org/2000/svg">
<rect width="512" height="512" fill="#06589C"/>
<path d="M99.568 297.48C95.856 297.48 91.664 297.16 86.992 296.52C84.432 296.2 82.672 295.528 81.712 294.504C80.752 293.48 80.336 291.816 80.464 289.512C80.912 283.176 81.968 275.368 83.632 266.088C85.296 256.744 87.312 247.752 89.68 239.112C90.128 237.512 91.024 236.392 92.368 235.752C93.712 235.112 95.472 234.792 97.648 234.792C101.552 234.792 103.504 235.88 103.504 238.056C103.504 238.952 103.312 239.976 102.928 241.128C101.264 246.248 99.6 253.128 97.936 261.768C96.272 270.344 95.088 278.536 94.384 286.344C96.304 286.536 98.48 286.632 100.912 286.632C112.112 286.632 120.464 283.24 125.968 276.456C131.536 269.672 134.32 260.616 134.32 249.288C134.32 241.672 132.144 235.784 127.792 231.624C123.44 227.464 117.296 225.384 109.36 225.384C104.24 225.384 99.152 226.184 94.096 227.784C89.104 229.384 84.592 231.496 80.56 234.12C79.728 234.696 78.832 234.984 77.872 234.984C76.784 234.984 75.92 234.536 75.28 233.64C74.64 232.68 74.32 231.528 74.32 230.184C74.32 228.648 74.576 227.4 75.088 226.44C75.6 225.416 76.464 224.488 77.68 223.656C82.096 220.648 87.28 218.376 93.232 216.84C99.184 215.24 104.912 214.44 110.416 214.44C118.224 214.44 124.976 215.816 130.672 218.568C136.368 221.256 140.752 225.224 143.824 230.472C146.896 235.72 148.432 242.056 148.432 249.48C148.432 259.144 146.512 267.592 142.672 274.824C138.832 281.992 133.232 287.56 125.872 291.528C118.512 295.496 109.744 297.48 99.568 297.48ZM164.791 297.48C160.823 297.48 157.655 296.04 155.287 293.16C152.919 290.28 151.735 286.504 151.735 281.832C151.735 276.712 152.919 271.88 155.287 267.336C157.655 262.728 160.791 259.048 164.695 256.296C168.663 253.48 172.855 252.072 177.271 252.072C178.679 252.072 179.607 252.36 180.055 252.936C180.567 253.448 180.983 254.408 181.303 255.816C182.647 255.56 184.055 255.432 185.527 255.432C188.663 255.432 190.231 256.552 190.231 258.792C190.231 260.136 189.751 263.336 188.791 268.392C187.319 275.752 186.583 280.872 186.583 283.752C186.583 284.712 186.807 285.48 187.255 286.056C187.767 286.632 188.407 286.92 189.175 286.92C190.391 286.92 191.863 286.152 193.591 284.616C195.319 283.016 197.655 280.456 200.599 276.936C201.367 276.04 202.231 275.592 203.191 275.592C204.023 275.592 204.663 275.976 205.111 276.744C205.623 277.512 205.879 278.568 205.879 279.912C205.879 282.472 205.271 284.456 204.055 285.864C201.431 289.128 198.647 291.88 195.703 294.12C192.759 296.36 189.911 297.48 187.159 297.48C185.047 297.48 183.095 296.776 181.303 295.368C179.575 293.896 178.263 291.912 177.367 289.416C174.039 294.792 169.847 297.48 164.791 297.48ZM168.247 287.784C169.655 287.784 170.999 286.952 172.279 285.288C173.559 283.624 174.487 281.416 175.063 278.664L178.615 261C175.927 261.064 173.431 262.088 171.127 264.072C168.887 265.992 167.095 268.552 165.751 271.752C164.407 274.952 163.735 278.344 163.735 281.928C163.735 283.912 164.119 285.384 164.887 286.344C165.719 287.304 166.839 287.784 168.247 287.784ZM231.677 252.264C233.149 252.264 234.173 252.456 234.749 252.84C235.325 253.224 235.613 253.864 235.613 254.76C235.613 256.296 234.781 261.768 233.117 271.176C231.645 280.2 230.781 285.544 230.525 287.208C228.157 303.656 224.893 316.68 220.733 326.28C216.573 335.88 211.037 340.68 204.125 340.68C200.861 340.68 198.205 339.656 196.157 337.608C194.109 335.624 193.085 333 193.085 329.736C193.085 326.728 193.757 323.656 195.101 320.52C196.509 317.384 199.069 313.768 202.781 309.672C206.557 305.64 211.869 301 218.717 295.752L219.005 293.544C219.453 291.176 219.965 287.784 220.541 283.368C219.261 287.976 217.469 291.496 215.165 293.928C212.861 296.296 210.429 297.48 207.869 297.48C204.989 297.48 202.621 296.168 200.765 293.544C198.973 290.856 198.077 287.528 198.077 283.56C198.077 278.76 198.397 274.376 199.037 270.408C199.677 266.376 200.733 262.12 202.205 257.64C202.845 255.72 203.741 254.344 204.893 253.512C206.045 252.68 207.869 252.264 210.365 252.264C211.773 252.264 212.733 252.488 213.245 252.936C213.821 253.384 214.109 254.056 214.109 254.952C214.109 255.464 213.757 257.192 213.053 260.136C212.413 262.504 211.901 264.648 211.517 266.568C211.005 269.192 210.557 271.72 210.173 274.152C209.789 276.52 209.597 278.472 209.597 280.008C209.597 282.44 210.269 283.656 211.613 283.656C212.573 283.656 213.757 282.696 215.165 280.776C216.637 278.856 218.173 275.944 219.773 272.04C221.437 268.136 223.037 263.336 224.573 257.64C225.085 255.72 225.853 254.344 226.877 253.512C227.965 252.68 229.565 252.264 231.677 252.264ZM205.181 331.368C206.781 331.368 208.573 329.512 210.557 325.8C212.541 322.088 214.525 315.912 216.509 307.272C211.581 311.432 207.997 315.208 205.757 318.6C203.581 322.056 202.493 325.064 202.493 327.624C202.493 328.712 202.685 329.608 203.069 330.312C203.517 331.016 204.221 331.368 205.181 331.368ZM247.826 297.48C245.01 297.48 242.866 296.712 241.394 295.176C239.986 293.64 239.282 291.624 239.282 289.128C239.282 286.248 240.082 283.944 241.682 282.216C243.346 280.488 245.65 279.624 248.594 279.624C251.41 279.624 253.522 280.328 254.93 281.736C256.402 283.08 257.138 285.096 257.138 287.784C257.138 290.728 256.306 293.096 254.642 294.888C252.978 296.616 250.706 297.48 247.826 297.48ZM319.449 275.592C320.281 275.592 320.921 275.976 321.369 276.744C321.881 277.512 322.137 278.568 322.137 279.912C322.137 282.472 321.529 284.456 320.312 285.864C317.689 289.064 314.809 291.816 311.673 294.12C308.537 296.36 305.433 297.48 302.361 297.48C297.497 297.48 293.785 294.632 291.225 288.936C288.537 292.328 286.169 294.6 284.121 295.752C282.137 296.904 279.801 297.48 277.113 297.48C273.209 297.48 269.977 296.04 267.417 293.16C264.921 290.216 263.673 286.408 263.673 281.736C263.673 276.616 264.761 271.88 266.937 267.528C269.113 263.112 272.089 259.528 275.865 256.776C279.705 253.96 283.993 252.296 288.729 251.784C289.945 239.368 292.249 228.776 295.641 220.008C299.097 211.176 303.609 206.76 309.177 206.76C311.929 206.76 314.201 208.008 315.993 210.504C317.849 213 318.777 216.776 318.777 221.832C318.777 229 317.017 237.384 313.497 246.984C309.977 256.584 305.273 266.44 299.385 276.552C299.641 280.264 300.185 282.92 301.017 284.52C301.913 286.12 303.033 286.92 304.377 286.92C306.105 286.92 307.865 286.152 309.656 284.616C311.449 283.08 313.849 280.52 316.857 276.936C317.625 276.04 318.489 275.592 319.449 275.592ZM308.121 216.168C306.905 216.168 305.689 218.344 304.473 222.696C303.257 226.984 302.201 232.616 301.305 239.592C300.473 246.568 299.865 253.864 299.481 261.48C306.649 245.864 310.233 233.32 310.233 223.848C310.233 221.416 310.009 219.528 309.561 218.184C309.177 216.84 308.697 216.168 308.121 216.168ZM280.473 287.784C281.689 287.784 282.905 287.304 284.121 286.344C285.337 285.32 286.873 283.464 288.729 280.776C288.089 277.32 287.769 273.448 287.769 269.16C287.769 267.624 287.833 265.128 287.961 261.672C284.441 262.76 281.497 265.128 279.129 268.776C276.825 272.36 275.673 276.36 275.673 280.776C275.673 285.448 277.273 287.784 280.473 287.784ZM325.197 297.48C321.229 297.48 318.061 296.04 315.693 293.16C313.325 290.28 312.141 286.504 312.141 281.832C312.141 276.712 313.325 271.88 315.693 267.336C318.061 262.728 321.197 259.048 325.101 256.296C329.069 253.48 333.261 252.072 337.677 252.072C339.085 252.072 340.013 252.36 340.461 252.936C340.973 253.448 341.389 254.408 341.709 255.816C343.053 255.56 344.461 255.432 345.933 255.432C349.069 255.432 350.637 256.552 350.637 258.792C350.637 260.136 350.157 263.336 349.197 268.392C347.725 275.752 346.989 280.872 346.989 283.752C346.989 284.712 347.213 285.48 347.661 286.056C348.173 286.632 348.813 286.92 349.581 286.92C350.797 286.92 352.269 286.152 353.997 284.616C355.725 283.016 358.061 280.456 361.005 276.936C361.773 276.04 362.637 275.592 363.597 275.592C364.429 275.592 365.069 275.976 365.517 276.744C366.029 277.512 366.285 278.568 366.285 279.912C366.285 282.472 365.677 284.456 364.461 285.864C361.837 289.128 359.053 291.88 356.109 294.12C353.165 296.36 350.317 297.48 347.565 297.48C345.453 297.48 343.501 296.776 341.709 295.368C339.981 293.896 338.669 291.912 337.773 289.416C334.445 294.792 330.253 297.48 325.197 297.48ZM328.653 287.784C330.061 287.784 331.405 286.952 332.685 285.288C333.965 283.624 334.893 281.416 335.469 278.664L339.021 261C336.333 261.064 333.837 262.088 331.533 264.072C329.293 265.992 327.501 268.552 326.157 271.752C324.813 274.952 324.141 278.344 324.141 281.928C324.141 283.912 324.525 285.384 325.293 286.344C326.125 287.304 327.245 287.784 328.653 287.784ZM397.267 265.416C398.675 265.416 399.859 265.928 400.819 266.952C401.843 267.912 402.355 269.128 402.355 270.6C402.355 271.432 402.163 272.328 401.779 273.288C400.755 275.656 399.315 277.64 397.459 279.24C395.603 280.84 393.555 281.64 391.315 281.64C389.523 281.64 387.987 281 386.707 279.72C385.491 278.44 384.883 276.712 384.883 274.536C384.883 273.32 384.947 272.008 385.075 270.6C385.203 269.576 385.267 268.872 385.267 268.488C385.267 267.976 385.139 267.592 384.883 267.336C384.691 267.08 384.435 266.952 384.115 266.952C383.219 266.952 382.003 268.04 380.467 270.216C378.931 272.328 377.395 275.144 375.859 278.664C374.323 282.184 373.075 285.896 372.115 289.8C371.411 292.872 370.611 294.92 369.715 295.944C368.819 296.968 367.347 297.48 365.299 297.48C362.867 297.48 361.139 296.2 360.115 293.64C359.155 291.08 358.675 286.984 358.675 281.352C358.675 273.032 359.859 265.128 362.227 257.64C362.803 255.784 363.731 254.44 365.011 253.608C366.355 252.712 368.211 252.264 370.579 252.264C371.859 252.264 372.755 252.424 373.267 252.744C373.779 253.064 374.035 253.672 374.035 254.568C374.035 255.592 373.555 257.896 372.595 261.48C371.955 264.04 371.443 266.28 371.059 268.2C370.675 270.12 370.355 272.488 370.099 275.304C372.211 269.8 374.579 265.32 377.203 261.864C379.827 258.408 382.387 255.944 384.883 254.472C387.379 253 389.651 252.264 391.699 252.264C393.555 252.264 394.963 252.808 395.923 253.896C396.947 254.92 397.459 256.456 397.459 258.504C397.459 259.72 397.107 262.024 396.403 265.416H397.267ZM421.854 261.384C421.726 264.584 421.662 267.08 421.662 268.872C421.662 273.48 421.886 277.096 422.334 279.72C422.846 282.28 423.646 284.136 424.734 285.288C425.886 286.376 427.454 286.92 429.438 286.92C430.462 286.92 431.678 286.6 433.086 285.96C434.494 285.32 435.774 284.488 436.926 283.464C437.63 282.824 438.334 282.504 439.038 282.504C439.806 282.504 440.414 282.952 440.862 283.848C441.374 284.68 441.63 285.704 441.63 286.92C441.63 288.136 441.374 289.32 440.862 290.472C440.414 291.624 439.71 292.584 438.75 293.352C435.422 296.104 431.646 297.48 427.422 297.48C421.342 297.48 416.894 294.952 414.078 289.896C411.262 284.776 409.854 278.12 409.854 269.928C409.854 267.112 409.95 264.264 410.142 261.384H406.398C404.478 261.384 403.166 261.032 402.462 260.328C401.822 259.624 401.502 258.504 401.502 256.968C401.502 253.384 402.942 251.592 405.822 251.592H411.294C412.382 244.552 414.046 238.12 416.286 232.296C418.526 226.472 421.214 221.832 424.35 218.376C427.55 214.92 430.974 213.192 434.622 213.192C437.31 213.192 439.422 214.376 440.958 216.744C442.494 219.112 443.262 222.088 443.262 225.672C443.262 235.592 439.102 244.232 430.782 251.592H441.534C442.558 251.592 443.294 251.816 443.742 252.264C444.19 252.712 444.414 253.544 444.414 254.76C444.414 259.176 440.798 261.384 433.566 261.384H421.854ZM432.03 222.408C431.07 222.408 429.982 223.624 428.766 226.056C427.614 228.424 426.494 231.752 425.406 236.04C424.382 240.264 423.518 244.968 422.814 250.152C426.59 246.888 429.406 243.24 431.262 239.208C433.182 235.112 434.142 231.4 434.142 228.072C434.142 224.296 433.438 222.408 432.03 222.408Z" fill="white"/>
</svg>
